<svg width="74" height="14" viewBox="0 0 74 14" fill="none" xmlns="http://www.w3.org/2000/svg">
<path d="M7.288 6.84C7.992 7.064 8.53067 7.42133 8.904 7.912C9.27733 8.392 9.464 8.984 9.464 9.688C9.464 10.808 9.12267 11.64 8.44 12.184C7.75733 12.728 6.616 13 5.016 13H0.6V0.872H5.016C6.46667 0.872 7.49067 1.144 8.088 1.688C8.68533 2.22133 8.984 3.032 8.984 4.12C8.984 4.77067 8.84533 5.32533 8.568 5.784C8.30133 6.232 7.87467 6.584 7.288 6.84ZM2.488 6.136H5.016C6.38133 6.136 7.064 5.50133 7.064 4.232C7.064 3.58133 6.90933 3.11733 6.6 2.84C6.29067 2.56267 5.76267 2.424 5.016 2.424H2.488V6.136ZM7.544 9.56C7.544 8.90933 7.33067 8.43467 6.904 8.136C6.47733 7.83733 5.848 7.688 5.016 7.688H2.488V11.448H5.016C5.944 11.448 6.59467 11.2987 6.968 11C7.352 10.7013 7.544 10.2213 7.544 9.56ZM16.8364 13.272C15.2364 13.272 14.0364 12.8667 13.2364 12.056C12.447 11.2453 12.0524 10.104 12.0524 8.632V0.872H13.9404V8.632C13.9404 9.624 14.1804 10.376 14.6604 10.888C15.151 11.3893 15.8764 11.64 16.8364 11.64C17.7964 11.64 18.5164 11.3893 18.9964 10.888C19.487 10.376 19.7324 9.624 19.7324 8.632V0.872H21.6204V8.632C21.6204 10.1147 21.2204 11.2613 20.4204 12.072C19.631 12.872 18.4364 13.272 16.8364 13.272ZM28.3719 13.272C26.7932 13.272 25.3852 12.9787 24.1479 12.392V10.648C25.4065 11.3093 26.8145 11.64 28.3719 11.64C29.1932 11.64 29.7959 11.4747 30.1799 11.144C30.5639 10.8133 30.7559 10.376 30.7559 9.832C30.7559 9.30933 30.5799 8.91467 30.2279 8.648C29.8759 8.38133 29.3425 8.152 28.6279 7.96L27.5399 7.656C26.9212 7.47467 26.3879 7.26667 25.9399 7.032C25.4919 6.79733 25.1132 6.456 24.8039 6.008C24.5052 5.54933 24.3559 4.95733 24.3559 4.232C24.3559 3.05867 24.7025 2.168 25.3959 1.56C26.0892 0.952 27.0652 0.648 28.3239 0.648C29.0812 0.648 29.7425 0.717333 30.3079 0.855999C30.8839 0.983999 31.4652 1.192 32.0519 1.48V3.176C30.9212 2.57867 29.6785 2.28 28.3239 2.28C26.9372 2.28 26.2439 2.888 26.2439 4.104C26.2545 4.63733 26.4145 5.032 26.7239 5.288C27.0439 5.53333 27.5612 5.752 28.2759 5.944L29.3799 6.248C30.0412 6.42933 30.6012 6.64267 31.0599 6.888C31.5292 7.13333 31.9079 7.49067 32.1959 7.96C32.4945 8.41867 32.6439 9.02133 32.6439 9.768C32.6332 10.856 32.2492 11.7147 31.4919 12.344C30.7345 12.9627 29.6945 13.272 28.3719 13.272ZM40.2501 8.312V13H38.3941V8.312L34.0261 0.872H35.9461L39.3221 6.712L42.7141 0.872H44.6341L40.2501 8.312ZM54.4065 13L51.1585 8.152L47.9105 13H45.7025L50.0225 6.744L45.9905 0.872H48.1825L51.1585 5.336L54.1505 0.872H56.3425L52.2945 6.76L56.6145 13H54.4065ZM58.8031 0.872H60.6911V13H58.8031V0.872ZM73.4489 0.872V13H71.3529L65.7849 3.976V13H63.8969V0.872H65.9929L71.5609 9.896V0.872H73.4489Z" fill="#FF8A00"/>
</svg>
